<svg width="120" height="27" viewBox="0 0 120 27" fill="none" xmlns="http://www.w3.org/2000/svg">
<path d="M15.1541 25.0297V22.3902L17.4919 21.9378V6.17636L15.1541 5.72388V3.06932H17.4919H24.0076L29.9954 18.3782H30.0859L35.8777 3.06932H44.7463V5.72388L42.3934 6.17636V21.9378L44.7463 22.3902V25.0297H35.6514V22.3902L38.1099 21.9378V17.7297L38.1853 7.82037L38.0948 7.80529L31.5338 24.7281H28.2006L21.4888 7.94103L21.3983 7.95611L21.6547 17.2772V21.9378L24.2489 22.3902V25.0297H15.1541Z" fill="#343434"/>
<path d="M46.3149 25.0297V22.3902L48.6527 21.9378V6.17636L46.3149 5.72388V3.06932H63.3583V8.99682H59.9798L59.7837 6.46293H53.0568V11.9832H60.4926V15.3768H53.0568V21.6512H60.1457L60.3418 19.0268H63.6901V25.0297H46.3149Z" fill="#343434"/>
<path d="M71.3974 25.0297V22.3902L73.7503 21.9378V6.46293H69.7534L69.512 9.08732H66.1788V3.06932H85.7712V9.08732H82.4228L82.1815 6.46293H78.1544V21.9378L80.5224 22.3902V25.0297H71.3974Z" fill="#343434"/>
<path d="M84.3685 25.0297V22.3902L85.9371 22.164L92.9204 3.06932H97.4301L104.368 22.164L105.937 22.3902V25.0297H98.4557V22.3902L99.9791 22.1188L99.0138 19.1022H91.2914L90.3261 22.1188L91.8495 22.3902V25.0297H84.3685ZM92.3321 15.8594H97.9731L95.409 8.33318L95.1978 7.66954H95.1073L94.8811 8.37843L92.3321 15.8594Z" fill="#343434"/>
<path fill-rule="evenodd" clip-rule="evenodd" d="M117.122 13.4461L110.974 1.15118L113.277 0L120 13.4461L113.277 26.8923L110.974 25.7411L117.122 13.4461Z" fill="#4B99F5"/>
<path fill-rule="evenodd" clip-rule="evenodd" d="M2.87791 13.4463L9.02539 25.7412L6.72304 26.8924L-3.62396e-05 13.4463L6.72304 0.000133514L9.02539 1.15131L2.87791 13.4463Z" fill="#4B99F5"/>
</svg>
