<svg aria-hidden="true" style="position: absolute; width: 0; height: 0; overflow: hidden;" version="1.1" xmlns="http://www.w3.org/2000/svg" xmlns:xlink="http://www.w3.org/1999/xlink">
    <defs>
        <symbol id="icon-profile" viewBox="0 0 32 32">
            <path fill="currentColor" style="fill: currentColor" d="M16 0c-8.839 0-16 7.161-16 16s7.161 16 16 16c8.839 0 16-7.161 16-16s-7.161-16-16-16zM24.258 27.2c-2.316 1.71-5.168 2.736-8.258 2.736s-5.942-1.026-8.258-2.736v-0.877c0-2.277 1.852-4.129 4.129-4.129 0.716 0 1.774 0.735 4.129 0.735 2.361 0 3.406-0.735 4.129-0.735 2.277 0 4.129 1.852 4.129 4.129v0.877zM26.232 25.426c-0.439-2.993-2.987-5.297-6.103-5.297-1.323 0-1.961 0.736-4.129 0.736s-2.8-0.736-4.129-0.736c-3.116 0-5.665 2.303-6.103 5.297-2.29-2.484-3.703-5.787-3.703-9.426 0-7.684 6.252-13.935 13.935-13.935s13.936 6.252 13.936 13.935c0 3.639-1.413 6.942-3.703 9.426zM16 7.226c-3.136 0-5.677 2.542-5.677 5.677s2.542 5.677 5.677 5.677c3.136 0 5.677-2.542 5.677-5.677s-2.542-5.677-5.677-5.677zM16 16.516c-1.994 0-3.613-1.619-3.613-3.613s1.619-3.613 3.613-3.613c1.994 0 3.613 1.619 3.613 3.613s-1.619 3.613-3.613 3.613z"></path>
        </symbol>
        <symbol id="icon-message" viewBox="0 0 32 32">
            <path fill="currentColor" style="fill: currentColor" d="M29 4h-26c-1.656 0-3 1.344-3 3v18c0 1.656 1.344 3 3 3h26c1.656 0 3-1.344 3-3v-18c0-1.656-1.344-3-3-3zM3 6h26c0.55 0 1 0.45 1 1v2.588c-1.369 1.156-3.325 2.75-9.412 7.581-1.056 0.837-3.138 2.856-4.588 2.831-1.45 0.025-3.537-1.994-4.588-2.831-6.088-4.831-8.044-6.425-9.412-7.581v-2.588c0-0.55 0.45-1 1-1zM29 26h-26c-0.55 0-1-0.45-1-1v-12.813c1.425 1.169 3.675 2.975 8.169 6.544 1.281 1.025 3.544 3.281 5.831 3.269 2.275 0.019 4.519-2.219 5.831-3.269 4.494-3.569 6.744-5.375 8.169-6.544v12.813c0 0.55-0.45 1-1 1z"></path>
        </symbol>
        <symbol id="icon-exit" viewBox="0 0 32 32">
            <path fill="#4b99f5" style="fill: var(--color2, #4b99f5)" d="M3 4h8.25c0.412 0 0.75 0.338 0.75 0.75v0.5c0 0.412-0.338 0.75-0.75 0.75h-8.25c-0.55 0-1 0.45-1 1v18c0 0.55 0.45 1 1 1h8.25c0.412 0 0.75 0.337 0.75 0.75v0.5c0 0.413-0.338 0.75-0.75 0.75h-8.25c-1.656 0-3-1.344-3-3v-18c0-1.656 1.344-3 3-3zM20.437 5.219l-0.444 0.444c-0.294 0.294-0.294 0.769 0 1.063l8.25 8.213h-17.494c-0.412 0-0.75 0.338-0.75 0.75v0.625c0 0.412 0.338 0.75 0.75 0.75h17.494l-8.244 8.212c-0.294 0.294-0.294 0.769 0 1.062l0.444 0.444c0.294 0.294 0.769 0.294 1.063 0l10.281-10.25c0.294-0.294 0.294-0.769 0-1.062l-10.288-10.25c-0.294-0.294-0.769-0.294-1.063 0z"></path>
        </symbol>
        <symbol id="icon-notification" viewBox="0 0 32 32">
            <path fill="none" stroke="#fff" style="stroke: var(--color1, #fff)" stroke-linecap="round" stroke-linejoin="round" stroke-width="1.8" d="M10.25 22.25h11.5"></path>
            <path fill="none" stroke="#fff" style="stroke: var(--color1, #fff)" stroke-linecap="round" stroke-linejoin="round" stroke-width="1.8" d="M12 22.25v-7.25c0-2.762 1.791-5 4-5s4 2.238 4 5v7.25"></path>
            <path fill="none" stroke="#fff" style="stroke: var(--color1, #fff)" stroke-linecap="round" stroke-linejoin="round" stroke-width="1.8" d="M14.5 25.25c0.481 0.923 1.153 1.375 1.75 1.375s1.269-0.452 1.75-1.375"></path>
        </symbol>
        <symbol id="icon-search" viewBox="0 0 32 32">
            <path fill="currentColor" style="fill: currentColor" d="M31.781 30.1l-8.063-8.063c-0.144-0.144-0.331-0.219-0.531-0.219h-0.644c2.144-2.319 3.456-5.412 3.456-8.819 0-7.181-5.819-13-13-13s-13 5.819-13 13c0 7.181 5.819 13 13 13 3.406 0 6.5-1.312 8.819-3.45v0.637c0 0.2 0.081 0.388 0.219 0.531l8.063 8.063c0.294 0.294 0.769 0.294 1.063 0l0.619-0.619c0.294-0.294 0.294-0.769 0-1.063zM13 24c-6.081 0-11-4.919-11-11s4.919-11 11-11c6.081 0 11 4.919 11 11s-4.919 11-11 11z"></path>
        </symbol>
        <symbol id="icon-info" viewBox="0 0 42 32">
            <path fill="#4b99f5" style="fill: var(--color2, #4b99f5)" d="M37.115 16l-7.315-14.63 2.74-1.37 8 16-8 16-2.74-1.37 7.315-14.63z"></path>
            <path fill="#4b99f5" style="fill: var(--color2, #4b99f5)" d="M3.425 16l7.315 14.63-2.74 1.37-8-16 8-16 2.74 1.37-7.315 14.63z"></path>
            <path fill="#4b99f5" style="fill: var(--color2, #4b99f5)" d="M18.74 20.688v-17.552h3.063v17.552h-3.063zM18.74 29.267v-3.661h3.063v3.661h-3.063z"></path>
        </symbol>
        <symbol id="icon-logo" viewBox="0 0 94 32">
            <path fill="#fff" style="fill: var(--color1, #fff)" d="M11.774 25v-2.051l1.816-0.352v-12.246l-1.816-0.352v-2.063h6.879l4.652 11.895h0.070l4.5-11.895h6.891v2.063l-1.828 0.352v12.246l1.828 0.352v2.051h-7.066v-2.051l1.91-0.352v-3.27l0.059-7.699-0.070-0.012-5.098 13.148h-2.59l-5.215-13.043-0.070 0.012 0.199 7.242v3.621l2.016 0.352v2.051h-7.066zM35.985 25v-2.051l1.816-0.352v-12.246l-1.816-0.352v-2.063h13.242v4.605h-2.625l-0.152-1.969h-5.227v4.289h5.777v2.637h-5.777v4.875h5.508l0.152-2.039h2.602v4.664h-13.5zM55.474 25v-2.051l1.828-0.352v-12.024h-3.105l-0.188 2.039h-2.59v-4.676h15.223v4.676h-2.602l-0.188-2.039h-3.129v12.023l1.84 0.352v2.051h-7.090zM65.552 25v-2.051l1.219-0.176 5.426-14.836h3.504l5.391 14.836 1.219 0.176v2.051h-5.813v-2.051l1.184-0.211-0.75-2.344h-6l-0.75 2.344 1.184 0.211v2.051h-5.813zM71.739 17.875h4.383l-1.992-5.848-0.164-0.516h-0.070l-0.176 0.551-1.981 5.813z"></path>
            <path fill="none" stroke="#4b99f5" style="stroke: var(--color2, #4b99f5)" stroke-linejoin="miter" stroke-linecap="butt" stroke-miterlimit="4" stroke-width="2" d="M87.118 6l5 10-5 10"></path>
            <path fill="none" stroke="#4b99f5" style="stroke: var(--color2, #4b99f5)" stroke-linejoin="miter" stroke-linecap="butt" stroke-miterlimit="4" stroke-width="2" d="M6.118 26l-5-10 5-10"></path>
        </symbol>
        <symbol id="icon-arrow" viewBox="0 0 56 32">
            <path d="M38.879 0.439l-0.884 0.884c-0.586 0.586-0.586 1.536 0 2.121l10.491 10.43h-46.986c-0.828 0-1.5 0.672-1.5 1.5v1.25c0 0.828 0.672 1.5 1.5 1.5h46.986l-10.491 10.43c-0.586 0.586-0.586 1.535 0 2.121l0.884 0.884c0.586 0.586 1.535 0.586 2.121 0l14.561-14.5c0.586-0.586 0.586-1.536 0-2.121l-14.561-14.5c-0.586-0.586-1.535-0.586-2.121 0z"></path>
        </symbol>
        <symbol id="icon-more" viewBox="0 0 55 32">
            <path fill="#4b99f5" style="fill: var(--color2, #4b99f5)" d="M53.795 2.856l-2.424-2.425c-0.576-0.576-1.506-0.576-2.082 0l-22.175 22.127-22.176-22.127c-0.575-0.576-1.506-0.576-2.082 0l-2.425 2.425c-0.576 0.575-0.576 1.506 0 2.082l25.641 25.641c0.576 0.576 1.506 0.576 2.082 0l25.641-25.641c0.576-0.575 0.576-1.506 0-2.082z"></path>
        </symbol>
        <symbol id="icon-bell" viewBox="0 0 27 32">
            <path fill="currentColor" style="fill: currentColor" d="M0 27.152h25.785v-2.002h-3.397v-12.755c0-2.276-0.701-4.296-2.103-6.058-1.394-1.753-3.193-2.841-5.397-3.262v-1.162c0-0.565-0.191-1.027-0.575-1.382-0.383-0.354-0.857-0.531-1.421-0.531s-1.038 0.176-1.421 0.531c-0.384 0.355-0.575 0.817-0.575 1.382v1.162c-2.203 0.422-3.996 1.51-5.376 3.263-1.388 1.763-2.082 3.783-2.082 6.058v12.755h-3.439v2.002zM9.861 28.921h6.062v0.048c0 0.841-0.295 1.558-0.884 2.147s-1.306 0.884-2.147 0.884c-0.814 0-1.523-0.295-2.126-0.884s-0.905-1.306-0.905-2.147v-0.048zM20.386 25.151h-14.986v-12.755c0-2.087 0.727-3.863 2.182-5.332s3.238-2.203 5.352-2.203c2.087 0 3.849 0.734 5.29 2.202s2.162 3.245 2.162 5.332v12.755z"></path>
        </symbol>
    </defs>
</svg>
